<?xml version="1.0" encoding="UTF-8"?>
<svg id="_Слой_1" data-name="Слой 1" xmlns="http://www.w3.org/2000/svg" viewBox="0 0 113.5 62">
  <defs>
    <style>
      .cls-1 {
        stroke-width: 0px;
      }
    </style>
  </defs>
  <path class="cls-1" d="m100.45,6c5.54,0,10.05,4.51,10.05,10.05v32.9c0,5.54-4.51,10.05-10.05,10.05h-24.9c-5.54,0-10.05-4.51-10.05-10.05V16.05c0-5.54,4.51-10.05,10.05-10.05h24.9m0-3h-24.9c-7.21,0-13.05,5.84-13.05,13.05v32.9c0,7.21,5.84,13.05,13.05,13.05h24.9c7.21,0,13.05-5.84,13.05-13.05V16.05c0-7.21-5.84-13.05-13.05-13.05h0Z"/>
  <path class="cls-1" d="m76.5,0c-1.1,0-2,.9-2,2v4c0,1.1.9,2,2,2s2-.9,2-2V2c0-1.1-.9-2-2-2h0Z"/>
  <path class="cls-1" d="m88.5,0c-1.1,0-2,.9-2,2v4c0,1.1.9,2,2,2s2-.9,2-2V2c0-1.1-.9-2-2-2h0Z"/>
  <path class="cls-1" d="m99.5,0c-1.1,0-2,.9-2,2v4c0,1.1.9,2,2,2s2-.9,2-2V2c0-1.1-.9-2-2-2h0Z"/>
  <path class="cls-1" d="m99.5,19h-24c-1.1,0-2,.9-2,2s.9,2,2,2h24c1.1,0,2-.9,2-2s-.9-2-2-2h0Z"/>
  <path class="cls-1" d="m87.5,30h-12c-1.1,0-2,.9-2,2s.9,2,2,2h12c1.1,0,2-.9,2-2s-.9-2-2-2h0Z"/>
  <path class="cls-1" d="m83.5,40h-8c-1.1,0-2,.9-2,2s.9,2,2,2h8c1.1,0,2-.9,2-2s-.9-2-2-2h0Z"/>
  <path class="cls-1" d="m110.5,47v1.48c0,4.93-3.41,9.08-8,10.22v-9.15c0-1.4,1.14-2.54,2.54-2.54h5.46m2.52-3h-7.98c-3.06,0-5.54,2.48-5.54,5.54v11.98c0,.26.21.48.48.48,7.47,0,13.52-6.05,13.52-13.52v-4c0-.26-.21-.48-.48-.48h0Z"/>
</svg>